<?xml version="1.0" encoding="utf-8"?>
<!-- Generator: Adobe Illustrator 21.0.2, SVG Export Plug-In . SVG Version: 6.00 Build 0)  -->
<svg version="1.1" id="Ebene_1" xmlns="http://www.w3.org/2000/svg" xmlns:xlink="http://www.w3.org/1999/xlink" x="0px" y="0px"
	 viewBox="0 0 510.2 141.7" style="enable-background:new 0 0 510.2 141.7;" xml:space="preserve">
<style type="text/css">
	.st0{clip-path:url(#SVGID_2_);fill:#0063AF;}
</style>
<g>
	<defs>
		<rect id="SVGID_1_" x="20" y="11" width="472.6" height="124.3"/>
	</defs>
	<clipPath id="SVGID_2_">
		<use xlink:href="#SVGID_1_"  style="overflow:visible;"/>
	</clipPath>
	<path class="st0" d="M440.8,121.5c2.3,0.6,3,0.9,3,2c0,1.6-1.7,2.2-3.6,2.2c-2.4,0-3.5-0.8-3.5-2.1c0-1.4,2-2.6,2.2-2.6
		L440.8,121.5z M439.9,117.2c-1.4,0-2.9-0.9-2.9-2.8c0-1.7,1.2-2.7,3-2.7c1.7,0,2.9,1,2.9,2.7C442.9,116.3,441.5,117.2,439.9,117.2
		 M445.2,110.9h-3.6c-0.5-0.2-0.9-0.2-1.7-0.2c-2.7,0-4.1,1.7-4.1,3.8c0,1.9,1,2.8,2.2,3.3c-0.7,0.5-1.2,1-1.2,1.8
		c0,0.8,0.5,1,0.9,1.1c-1.2,0.8-2.4,1.7-2.4,3.1c0,2,2,2.9,4.6,2.9c3.2,0,5-1.2,5-3.2c0-2.3-2.1-2.7-3.7-3.1l-0.7-0.2
		c-2.3-0.5-2.5-0.6-2.5-1.2c0-0.5,0.6-1,0.8-1.1c0.2,0.1,0.6,0.1,1,0.1c3.3,0,4.3-2.1,4.3-3.7c0-1.5-0.5-2-1-2.6h2.1V110.9z
		 M429.6,122.7h1.2v-8.3c1.4-1.8,2-2.2,3.9-2.3v-1.2c-1.9,0-2.6,0.7-3.9,2.2v-2.2h-1.2V122.7z M419,116c0.1-2.9,1.7-4.4,3.4-4.4
		c1.8,0,3.1,1.5,3.2,4.4H419z M426.8,117v-0.6c0-2.9-1.1-5.8-4.3-5.8c-2.8,0-4.7,2.4-4.7,5.9c0,2.6,0.7,6.4,4.7,6.4
		c1.6,0,3.2-0.5,4.2-2.9l-1-0.4c-0.4,0.8-1.1,2.3-3.2,2.3c-2.9,0-3.4-3.1-3.4-4.9H426.8z M408.3,113.8c0.8-1.2,1.8-2.1,3.3-2.1
		c2.5,0,3.2,2.7,3.2,4.9c0,1.8-0.4,5.2-3.2,5.2c-2.1,0-3.2-1.9-3.2-2V113.8z M407.1,122.7h1.2V121h0c0.8,1.1,1.9,1.9,3.3,1.9
		c2.9,0,4.3-2.8,4.3-6.1c0-2.5-0.7-6.2-4.2-6.2c-1.8,0-2.7,0.9-3.5,1.9h0V107h-1.2V122.7z M389.7,122.7h1.2v-8.6
		c0.7-1,2.2-2.4,3.4-2.4c1.7,0,2,1.7,2,2.8v8.1h1.2v-9c1.2-1.2,2.2-1.9,3.5-1.9c1.6,0,1.9,1.4,1.9,2.7v8.3h1.2v-8.8
		c0-0.5,0-3.2-2.9-3.2c-1.2,0-2.5,0.5-3.8,2c-0.2-0.6-0.8-2-2.7-2c-1.8,0-2.9,1.2-3.8,2.3v-2h-1.2V122.7z M379.3,116
		c0.1-2.9,1.7-4.4,3.4-4.4c1.8,0,3.1,1.5,3.2,4.4H379.3z M387.1,117v-0.6c0-2.9-1.1-5.8-4.3-5.8c-2.8,0-4.8,2.4-4.8,5.9
		c0,2.6,0.7,6.4,4.7,6.4c1.6,0,3.2-0.5,4.2-2.9l-1-0.4c-0.4,0.8-1.1,2.3-3.2,2.3c-2.9,0-3.4-3.1-3.4-4.9H387.1z M372.7,111.8h-1.8v1
		h1.8v7c0,1.4,0,3.1,2.5,3.1c0.6,0,1.1-0.1,1.6-0.3v-1.1c-0.5,0.3-1.2,0.4-1.6,0.4c-1,0-1.3-0.7-1.3-2.2v-6.8h2.8v-1h-2.8v-3.6
		l-1.2,0.5V111.8z M366.2,111.8h-1.8v1h1.8v7c0,1.4,0,3.1,2.5,3.1c0.6,0,1.1-0.1,1.6-0.3v-1.1c-0.5,0.3-1.2,0.4-1.6,0.4
		c-1,0-1.3-0.7-1.3-2.2v-6.8h2.8v-1h-2.8v-3.6l-1.2,0.5V111.8z M358.5,122.7h1.2v-8.3c1.4-1.8,2-2.2,3.9-2.3v-1.2
		c-1.9,0-2.6,0.7-3.9,2.2v-2.2h-1.2V122.7z M355.2,110.9H354v8.6c-1,1.1-2.1,2.3-3.8,2.3c-1.5,0-2.1-0.9-2-2.2v-8.8H347v9
		c0,2.8,2.3,3.1,3,3.1c1.8,0,2.9-1.2,4-2.3v2h1.2V110.9z M352,108.6h1.4V107H352V108.6z M348.7,108.6h1.4V107h-1.4V108.6z
		 M328.2,108.4l3.7,14.3h1.7l3.1-12.7h0l3.2,12.7h1.6l3.7-14.3h-1.2l-3.2,12.7h0l-3.2-12.7h-1.7l-3.1,12.7h0l-3.1-12.7H328.2z
		 M327,116.2h-4.9v1.1h4.9V116.2z M311.3,122.7h1.2v-8.6c1-1.1,2.1-2.3,3.8-2.3c1.5,0,2.1,0.9,2,2.2v8.8h1.2v-9c0-2.8-2.3-3.1-3-3.1
		c-1.8,0-2.9,1.2-4,2.3v-2h-1.2V122.7z M300.9,116c0.1-2.9,1.7-4.4,3.4-4.4c1.8,0,3.1,1.5,3.2,4.4H300.9z M308.7,117v-0.6
		c0-2.9-1.1-5.8-4.3-5.8c-2.8,0-4.7,2.4-4.7,5.9c0,2.6,0.7,6.4,4.7,6.4c1.6,0,3.2-0.5,4.2-2.9l-1-0.4c-0.4,0.8-1.1,2.3-3.2,2.3
		c-2.9,0-3.4-3.1-3.4-4.9H308.7z M295.9,119.8c0,0.1-1.1,2-3.2,2c-2.8,0-3.2-3.4-3.2-5.2c0-2.2,0.7-4.9,3.2-4.9
		c1.5,0,2.4,0.9,3.3,2.1V119.8z M297.1,107h-1.2v5.5h0c-0.8-1-1.7-1.9-3.5-1.9c-3.5,0-4.2,3.7-4.2,6.2c0,3.3,1.4,6.1,4.3,6.1
		c1.5,0,2.5-0.8,3.3-1.9h0v1.7h1.2V107z M284.7,119.6c-1.4,1.4-2.2,2.2-3.7,2.2c-1.1,0-2.3-0.6-2.3-2.3c0-2.6,2.2-2.9,5.2-2.9h0.8
		V119.6z M279.1,113.9c0.4-0.9,1-2.2,2.8-2.2c2.6,0,2.7,1.8,2.7,3.9h-0.8c-3.1,0-6.4,0.4-6.4,4c0,1.9,1.2,3.3,3.3,3.3
		c1.8,0,2.9-1.1,3.9-2.1l0.1,1.9h1.2c0-0.2-0.1-1.8-0.1-2.9v-5.1c0-2-0.7-4.1-3.8-4.1c-2.3,0-3.5,1.4-4,2.9L279.1,113.9z
		 M267.5,115.7h2.9c2.7,0,3.7,1,3.7,3.1c0,2.6-2.1,2.9-4.2,2.9h-2.4V115.7z M267.5,109.4h2.6c2,0,3.6,0.4,3.6,2.6
		c0,2-1.3,2.7-3.3,2.7h-2.9V109.4z M266.3,122.7h3.9c3,0,5.3-0.9,5.3-4c0-2.3-1.7-3-2.8-3.5c1.2-0.5,2.4-1.2,2.4-3.1
		c0-2.6-1.5-3.7-5-3.7h-3.7V122.7z M258,113.2c-0.6-1.7-1.7-2.6-3.5-2.6c-2.4,0-3.7,1.5-3.7,3.1c0,1.8,1.1,2.5,2.8,3.1l1.5,0.5
		c1.2,0.4,2.1,0.9,2.1,2.2c0,1.3-0.8,2.3-2.7,2.3c-1.5,0-2.5-0.7-2.9-2.3l-1.1,0.4c0.4,1.5,1.6,3,4.1,3c2.9,0,3.9-1.7,3.9-3.3
		c0-2-1.2-2.7-3.2-3.4l-1.4-0.5c-1.2-0.4-1.8-0.9-1.8-2.1c0-0.9,0.7-2,2.4-2c0.9,0,2,0.3,2.5,1.9L258,113.2z M240.7,116
		c0.1-2.9,1.7-4.4,3.4-4.4c1.8,0,3.1,1.5,3.2,4.4H240.7z M248.6,117v-0.6c0-2.9-1.1-5.8-4.3-5.8c-2.8,0-4.8,2.4-4.8,5.9
		c0,2.6,0.7,6.4,4.7,6.4c1.6,0,3.2-0.5,4.2-2.9l-1-0.4c-0.4,0.8-1.1,2.3-3.2,2.3c-2.9,0-3.4-3.1-3.4-4.9H248.6z M235.8,119.8
		c0,0.1-1.1,2-3.2,2c-2.8,0-3.2-3.4-3.2-5.2c0-2.2,0.7-4.9,3.2-4.9c1.5,0,2.4,0.9,3.3,2.1V119.8z M237,107h-1.2v5.5h0
		c-0.8-1-1.7-1.9-3.5-1.9c-3.5,0-4.2,3.7-4.2,6.2c0,3.3,1.4,6.1,4.3,6.1c1.5,0,2.5-0.8,3.3-1.9h0v1.7h1.2V107z M217.4,122.7h1.2
		v-8.6c1-1.1,2.1-2.3,3.8-2.3c1.5,0,2.1,0.9,2,2.2v8.8h1.2v-9c0-2.8-2.3-3.1-3-3.1c-1.8,0-2.9,1.2-4,2.3v-2h-1.2V122.7z
		 M213.2,119.6c-1.4,1.4-2.2,2.2-3.7,2.2c-1.1,0-2.3-0.6-2.3-2.3c0-2.6,2.2-2.9,5.2-2.9h0.8V119.6z M207.6,113.9
		c0.4-0.9,1-2.2,2.8-2.2c2.6,0,2.7,1.8,2.7,3.9h-0.8c-3.1,0-6.4,0.4-6.4,4c0,1.9,1.2,3.3,3.3,3.3c1.8,0,2.9-1.1,3.9-2.1l0.1,1.9h1.2
		c0-0.2-0.1-1.8-0.1-2.9v-5.1c0-2-0.7-4.1-3.8-4.1c-2.3,0-3.5,1.4-4,2.9L207.6,113.9z M197.4,122.7h7.6v-1h-6.4v-13.3h-1.2V122.7z
		 M189.1,113.2c-0.6-1.7-1.7-2.6-3.5-2.6c-2.4,0-3.7,1.5-3.7,3.1c0,1.8,1.1,2.5,2.8,3.1l1.5,0.5c1.2,0.4,2.1,0.9,2.1,2.2
		c0,1.3-0.8,2.3-2.7,2.3c-1.5,0-2.5-0.7-2.9-2.3l-1.1,0.4c0.4,1.5,1.6,3,4.1,3c2.9,0,3.9-1.7,3.9-3.3c0-2-1.2-2.7-3.2-3.4l-1.4-0.5
		c-1.2-0.4-1.8-0.9-1.8-2.1c0-0.9,0.7-2,2.4-2c0.9,0,2,0.3,2.5,1.9L189.1,113.2z M171.8,116c0.1-2.9,1.7-4.4,3.4-4.4
		c1.8,0,3.1,1.5,3.2,4.4H171.8z M179.6,117v-0.6c0-2.9-1.1-5.8-4.3-5.8c-2.8,0-4.7,2.4-4.7,5.9c0,2.6,0.7,6.4,4.7,6.4
		c1.6,0,3.2-0.5,4.2-2.9l-1-0.4c-0.4,0.8-1.1,2.3-3.2,2.3c-2.9,0-3.4-3.1-3.4-4.9H179.6z M166.9,119.8c0,0.1-1.1,2-3.2,2
		c-2.8,0-3.2-3.4-3.2-5.2c0-2.2,0.7-4.9,3.2-4.9c1.5,0,2.4,0.9,3.3,2.1V119.8z M168.1,107h-1.2v5.5h0c-0.8-1-1.7-1.9-3.5-1.9
		c-3.5,0-4.2,3.7-4.2,6.2c0,3.3,1.4,6.1,4.3,6.1c1.5,0,2.5-0.8,3.3-1.9h0v1.7h1.2V107z"/>
	<path class="st0" d="M417.9,96.8h1.2v-8.6c1-1.1,2.1-2.3,3.8-2.3c1.5,0,2.1,0.9,2,2.2v8.8h1.2v-9c0-2.8-2.3-3.1-3-3.1
		c-1.8,0-2.9,1.2-4,2.3v-2h-1.2V96.8z M407.4,90.2c0.1-2.9,1.7-4.4,3.4-4.4c1.8,0,3.1,1.5,3.2,4.4H407.4z M415.2,91.1v-0.6
		c0-2.9-1.1-5.8-4.3-5.8c-2.8,0-4.8,2.4-4.8,5.9c0,2.6,0.7,6.4,4.7,6.4c1.6,0,3.2-0.5,4.2-2.9l-1-0.4c-0.4,0.8-1.1,2.3-3.2,2.3
		c-2.9,0-3.4-3.1-3.4-4.9H415.2z M400.8,85.9h-1.8v1h1.8v7c0,1.4,0,3.1,2.5,3.1c0.6,0,1.1-0.1,1.6-0.3v-1.1
		c-0.5,0.3-1.2,0.4-1.6,0.4c-1,0-1.3-0.7-1.3-2.2V87h2.8v-1H402v-3.6l-1.2,0.5V85.9z M394.9,96.8h1.2V87h2.3v-1H396v-1.2
		c0-0.9,0-2.5,1.7-2.5c0.4,0,0.8,0.1,1.2,0.3v-1.1c-0.4-0.1-0.8-0.2-1.4-0.2c-1.3,0-2.7,0.7-2.7,2.9v1.9h-1.8v1h1.8V96.8z
		 M389.9,93.7c-1.4,1.4-2.2,2.2-3.7,2.2c-1.1,0-2.3-0.6-2.3-2.3c0-2.6,2.2-2.9,5.2-2.9h0.8V93.7z M384.4,88c0.4-0.9,1-2.2,2.8-2.2
		c2.6,0,2.7,1.8,2.7,3.9h-0.8c-3.1,0-6.4,0.4-6.4,4c0,1.9,1.2,3.3,3.3,3.3c1.8,0,2.9-1.1,3.9-2.1l0.1,1.9h1.2c0-0.2-0.1-1.8-0.1-2.9
		v-5.1c0-2-0.7-4.1-3.8-4.1c-2.3,0-3.5,1.4-4,2.9L384.4,88z M372.1,96.8h1.2v-8.6c1-1.1,2.1-2.3,3.8-2.3c1.5,0,2.1,0.9,2,2.2v8.8
		h1.2v-9c0-2.8-2.3-3.1-3-3.1c-1.8,0-2.9,1.2-4,2.3v-5.9h-1.2V96.8z M369.8,87.7c-0.6-1.4-1.7-2.9-3.7-2.9c-2.8,0-4.8,2.4-4.8,5.9
		c0,2.6,0.7,6.4,4.7,6.4c2.2,0,3.2-1.7,3.8-2.9l-1.1-0.4c-0.4,1-1.4,2.2-3,2.2c-2,0-3.2-1.9-3.2-5.1c0-4.4,2.2-5.1,3.3-5.1
		c1.3,0,2.1,0.6,2.9,2.2L369.8,87.7z M359.2,87.3c-0.6-1.7-1.7-2.6-3.5-2.6c-2.4,0-3.7,1.5-3.7,3.1c0,1.8,1.1,2.5,2.8,3.1l1.5,0.5
		c1.2,0.4,2.1,0.9,2.1,2.2c0,1.3-0.8,2.3-2.7,2.3c-1.5,0-2.5-0.7-2.9-2.3l-1.1,0.4c0.4,1.5,1.6,3,4.1,3c2.9,0,3.9-1.7,3.9-3.3
		c0-2-1.2-2.7-3.2-3.4l-1.4-0.5c-1.2-0.4-1.8-0.9-1.8-2.1c0-0.9,0.7-2,2.4-2c0.9,0,2,0.3,2.5,1.9L359.2,87.3z M341,96.8h1.2v-8.6
		c1-1.1,2.1-2.3,3.8-2.3c1.5,0,2.1,0.9,2,2.2v8.8h1.2v-9c0-2.8-2.3-3.1-3-3.1c-1.8,0-2.9,1.2-4,2.3v-2H341V96.8z M330.5,90.2
		c0.1-2.9,1.7-4.4,3.4-4.4c1.8,0,3.1,1.5,3.2,4.4H330.5z M338.3,91.1v-0.6c0-2.9-1.1-5.8-4.3-5.8c-2.8,0-4.7,2.4-4.7,5.9
		c0,2.6,0.7,6.4,4.7,6.4c1.6,0,3.2-0.5,4.2-2.9l-1-0.4c-0.4,0.8-1.1,2.3-3.2,2.3c-2.9,0-3.4-3.1-3.4-4.9H338.3z M327.2,87.3
		c-0.6-1.7-1.7-2.6-3.5-2.6c-2.4,0-3.7,1.5-3.7,3.1c0,1.8,1.1,2.5,2.8,3.1l1.5,0.5c1.2,0.4,2.1,0.9,2.1,2.2c0,1.3-0.8,2.3-2.7,2.3
		c-1.5,0-2.5-0.7-2.9-2.3l-1.1,0.4c0.4,1.5,1.6,3,4.1,3c2.9,0,3.9-1.7,3.9-3.3c0-2-1.2-2.7-3.2-3.4l-1.4-0.5
		c-1.2-0.4-1.8-0.9-1.8-2.1c0-0.9,0.7-2,2.4-2c0.9,0,2,0.3,2.5,1.9L327.2,87.3z M317.7,87.3c-0.6-1.7-1.7-2.6-3.5-2.6
		c-2.4,0-3.7,1.5-3.7,3.1c0,1.8,1.1,2.5,2.8,3.1l1.5,0.5c1.2,0.4,2.1,0.9,2.1,2.2c0,1.3-0.8,2.3-2.7,2.3c-1.5,0-2.5-0.7-2.9-2.3
		l-1.1,0.4c0.4,1.5,1.7,3,4.1,3c2.9,0,3.9-1.7,3.9-3.3c0-2-1.2-2.7-3.2-3.4l-1.4-0.5c-1.2-0.4-1.8-0.9-1.8-2.1c0-0.9,0.7-2,2.4-2
		c0.9,0,2,0.3,2.5,1.9L317.7,87.3z M307.7,81.2h-1.4v1.5h1.4V81.2z M306.4,96.8h1.2V85h-1.2V96.8z M287.5,82.5l3.7,14.3h1.6
		l3.1-12.7h0l3.2,12.7h1.6l3.7-14.3h-1.2L300,95.2h0l-3.2-12.7h-1.7L292,95.2h0l-3.1-12.7H287.5z M277.1,96.8h1.2v-8.3
		c1.4-1.8,2-2.2,3.9-2.3v-1.2c-1.9,0-2.6,0.7-3.9,2.2V85h-1.2V96.8z M266.5,90.2c0.1-2.9,1.7-4.4,3.4-4.4c1.8,0,3.1,1.5,3.2,4.4
		H266.5z M274.3,91.1v-0.6c0-2.9-1.1-5.8-4.3-5.8c-2.8,0-4.7,2.4-4.7,5.9c0,2.6,0.7,6.4,4.7,6.4c1.6,0,3.2-0.5,4.2-2.9l-1-0.4
		c-0.4,0.8-1.1,2.3-3.2,2.3c-2.9,0-3.4-3.1-3.4-4.9H274.3z M261.5,93.9c0,0.1-1.1,2-3.2,2c-2.8,0-3.2-3.4-3.2-5.2
		c0-2.2,0.7-4.8,3.2-4.8c1.5,0,2.4,0.9,3.3,2.1V93.9z M262.7,81.2h-1.2v5.5h0c-0.8-1-1.7-1.9-3.5-1.9c-3.5,0-4.2,3.7-4.2,6.2
		c0,3.3,1.4,6.1,4.3,6.1c1.5,0,2.5-0.8,3.3-1.9h0v1.7h1.2V81.2z M238.6,90.2c0.1-2.9,1.7-4.4,3.4-4.4c1.8,0,3.1,1.5,3.2,4.4H238.6z
		 M246.4,91.1v-0.6c0-2.9-1.1-5.8-4.3-5.8c-2.8,0-4.8,2.4-4.8,5.9c0,2.6,0.7,6.4,4.7,6.4c1.6,0,3.2-0.5,4.2-2.9l-1-0.4
		c-0.4,0.8-1.1,2.3-3.2,2.3c-2.9,0-3.4-3.1-3.4-4.9H246.4z M234.8,81.2h-1.4v1.5h1.4V81.2z M233.6,96.8h1.2V85h-1.2V96.8z M216,96.8
		h1.2v-8.6c0.7-1,2.2-2.4,3.4-2.4c1.7,0,2,1.7,2,2.8v8.1h1.2v-9c1.2-1.2,2.2-1.9,3.5-1.9c1.6,0,1.9,1.4,1.9,2.7v8.3h1.2V88
		c0-0.5,0-3.2-2.9-3.2c-1.2,0-2.5,0.5-3.8,2c-0.2-0.6-0.8-2-2.7-2c-1.8,0-2.9,1.2-3.8,2.3v-2H216V96.8z M205.6,90.2
		c0.1-2.9,1.7-4.4,3.4-4.4c1.8,0,3.1,1.5,3.2,4.4H205.6z M213.4,91.1v-0.6c0-2.9-1.1-5.8-4.3-5.8c-2.8,0-4.7,2.4-4.7,5.9
		c0,2.6,0.7,6.4,4.7,6.4c1.6,0,3.2-0.5,4.2-2.9l-1-0.4c-0.4,0.8-1.1,2.3-3.2,2.3c-2.9,0-3.4-3.1-3.4-4.9H213.4z M200.7,93.9
		c0,0.1-1.1,2-3.2,2c-2.8,0-3.2-3.4-3.2-5.2c0-2.2,0.7-4.8,3.2-4.8c1.5,0,2.4,0.9,3.3,2.1V93.9z M201.8,81.2h-1.2v5.5h0
		c-0.8-1-1.7-1.9-3.5-1.9c-3.5,0-4.2,3.7-4.2,6.2c0,3.3,1.4,6.1,4.3,6.1c1.5,0,2.5-0.8,3.3-1.9h0v1.7h1.2V81.2z M189.4,93.7
		c-1.4,1.4-2.2,2.2-3.7,2.2c-1.1,0-2.3-0.6-2.3-2.3c0-2.6,2.2-2.9,5.2-2.9h0.8V93.7z M183.9,88c0.4-0.9,1-2.2,2.8-2.2
		c2.6,0,2.7,1.8,2.7,3.9h-0.8c-3.1,0-6.4,0.4-6.4,4c0,1.9,1.2,3.3,3.3,3.3c1.8,0,2.9-1.1,3.9-2.1l0.1,1.9h1.2c0-0.2-0.1-1.8-0.1-2.9
		v-5.1c0-2-0.7-4.1-3.8-4.1c-2.3,0-3.5,1.4-4,2.9L183.9,88z M173.1,96.8h1.2v-6.2l5.4,6.2h1.7l-5.6-6.4L181,85h-1.6l-5,5.3v-9.2
		h-1.2V96.8z M161.8,91.7l2.5-6.5c0.2-0.6,0.4-1,0.6-1.5h0c0.2,0.5,0.3,0.9,0.5,1.5l2.5,6.5H161.8z M158.4,96.8h1.3l1.6-4.1h7.1
		l1.5,4.1h1.4l-5.7-14.3h-1.6L158.4,96.8z"/>
	<path class="st0" d="M435.7,66.9h3.9v-8.4c0-0.9-0.1-1.6-0.1-2.4h0.2c0.1,0.5,0.5,1.8,1.1,3l3.9,7.8h5.3V51.5h-3.9V59
		c0,1.4,0.1,2.5,0.2,3.3h-0.2c-0.4-1.2-0.9-2.4-1.3-3.3l-3.8-7.5h-5.3V66.9z M419.9,66.9h10.9v-3.1h-6.8v-3.1h6.1v-3.1h-6.1v-2.8
		h6.5v-3.1h-10.7V66.9z M404.1,54.7h4v12.1h4.2V54.7h4v-3.2h-12.2V54.7z M390.1,66.9h4.2V61h6.3v-3.1h-6.3v-3.2h6.5v-3.1h-10.7V66.9
		z M381.1,51.5h-5.3l-5.6,15.4h4.2l1-3.1h5.7l0.9,3.1h4.4L381.1,51.5z M376.4,60.7l1.2-3.6c0.2-0.6,0.5-1.6,0.7-2.4h0.1
		c0.1,0.6,0.3,1.5,0.6,2.4l1.2,3.6H376.4z M353,66.9h4.2v-6.5h5.1v6.5h4.2V51.5h-4.2v5.7h-5.1v-5.7H353V66.9z M345,61.6
		c-0.3,1-0.8,2.5-2.5,2.5c-2.4,0-2.9-2.5-2.9-5c0-4,1.8-4.8,2.9-4.8c1.9,0,2.3,1.5,2.4,2.3l3.9-0.8c-0.4-2.1-2.1-4.7-6-4.7
		c-3.6,0-7.6,2.1-7.6,8c0,5.9,3.7,8,7.6,8c3.5,0,5.3-1.6,6.2-4.8L345,61.6z M318.9,63.4c0.3,1,1.3,3.8,5.9,3.8c5,0,6.5-2.7,6.5-5
		c0-2.1-1.2-3.2-3.3-4l-2.8-1c-1.6-0.6-2.1-0.8-2.1-1.7c0-0.8,0.6-1.3,2-1.3c1.4,0,2,1.1,2,1.6l3.7-1.2c-0.3-0.9-1-3.4-5.4-3.4
		c-3.6,0-6.5,1.6-6.5,4.8c0,2.1,1.6,3.4,3.5,4.1l2.5,0.9c1.6,0.5,2.1,0.9,2.1,1.7c0,0.9-0.9,1.5-2.1,1.5c-1.9,0-2.4-1.6-2.5-2.2
		L318.9,63.4z M300.2,66.9h3.9v-8.4c0-0.9-0.1-1.6-0.1-2.4h0.2c0.1,0.5,0.5,1.8,1.1,3l3.9,7.8h5.3V51.5h-3.9V59
		c0,1.4,0.1,2.5,0.2,3.3h-0.2c-0.4-1.2-0.9-2.4-1.3-3.3l-3.8-7.5h-5.3V66.9z M284.5,66.9h10.9v-3.1h-6.8v-3.1h6.1v-3.1h-6.1v-2.8
		h6.5v-3.1h-10.7V66.9z M267.7,63.4c0.3,1,1.2,3.8,5.9,3.8c5,0,6.5-2.7,6.5-5c0-2.1-1.2-3.2-3.3-4l-2.8-1c-1.6-0.6-2.1-0.8-2.1-1.7
		c0-0.8,0.6-1.3,2-1.3c1.4,0,2,1.1,2,1.6l3.7-1.2c-0.3-0.9-1-3.4-5.4-3.4c-3.6,0-6.5,1.6-6.5,4.8c0,2.1,1.6,3.4,3.5,4.1l2.5,0.9
		c1.6,0.5,2.1,0.9,2.1,1.7c0,0.9-0.9,1.5-2.1,1.5c-1.9,0-2.4-1.6-2.5-2.2L267.7,63.4z M251.6,63.4c0.3,1,1.3,3.8,5.9,3.8
		c5,0,6.5-2.7,6.5-5c0-2.1-1.2-3.2-3.3-4l-2.8-1c-1.6-0.6-2.1-0.8-2.1-1.7c0-0.8,0.6-1.3,2-1.3c1.4,0,2,1.1,2,1.6l3.7-1.2
		c-0.3-0.9-1-3.4-5.4-3.4c-3.6,0-6.5,1.6-6.5,4.8c0,2.1,1.6,3.4,3.5,4.1l2.5,0.9c1.6,0.5,2.1,0.9,2.1,1.7c0,0.9-0.9,1.5-2.1,1.5
		c-1.9,0-2.4-1.6-2.5-2.2L251.6,63.4z M242.9,66.9h4.2V51.5h-4.2V66.9z M221.1,66.9h5.3l1.4-8.3c0.2-1,0.5-3.1,0.5-3.9h0.2
		c0.1,1.2,0.2,2.4,0.4,3.5l1.6,8.7h5.3l3.3-15.4h-3.9l-1.3,7.1c-0.3,1.4-0.5,3.6-0.6,5.1H233c0-1.3-0.3-3.5-0.7-5.2l-1.3-7h-5.3
		l-1.4,8c-0.2,1.1-0.4,2.3-0.4,4.2h-0.2c-0.1-1.6-0.4-4-0.7-5.3l-1.3-6.9h-4.1L221.1,66.9z M194.1,66.9h4.2V61h1.6l2.5,5.9h4.7
		l-3.4-6.8c1.8-0.8,2.5-2.3,2.5-4.2c0-4.4-3.9-4.4-5.1-4.4h-7V66.9z M198.2,54.5h2.2c1.4,0,1.8,0.7,1.8,1.6c0,1.7-1.3,1.7-1.9,1.7
		h-2.2V54.5z M178.3,66.9h10.9v-3.1h-6.8v-3.1h6.1v-3.1h-6.1v-2.8h6.5v-3.1h-10.7V66.9z M164,54.7h1.4c2.8,0,3.9,2,3.9,4.5
		c0,2.8-0.9,4.5-4,4.5H164V54.7z M159.8,66.9h6c4.7,0,8-2.5,8-7.8c0-5-3-7.6-7.7-7.6h-6.3V66.9z"/>
	<path class="st0" d="M481.7,41h10.9v-3.1h-6.8v-3.1h6.1v-3.1h-6.1v-2.8h6.5v-3.1h-10.7V41z M472.4,41h4.2V25.6h-4.2V41z M448.7,41
		h3.9v-8.4c0-1.3-0.1-3.3-0.2-3.8h0.2c0.1,0.6,0.4,1.8,0.7,2.7l3,9.5h3.1l2.7-8.7c0.3-1.1,0.8-3,0.9-3.6h0.3
		c-0.1,0.6-0.2,2.3-0.2,3.4V41h4.1V25.6H461l-2.4,7.5c-0.2,0.6-0.5,1.9-0.6,2.6h-0.2c-0.1-0.9-0.4-2-0.5-2.4l-2.3-7.7h-6.4V41z
		 M432.9,41h10.9v-3.1H437v-3.1h6.1v-3.1H437v-2.8h6.5v-3.1h-10.7V41z M418.6,28.8h1.4c2.8,0,3.9,2,3.9,4.5c0,2.8-0.9,4.5-4,4.5
		h-1.3V28.8z M414.3,41h6c4.7,0,8-2.5,8-7.8c0-5-3-7.6-7.7-7.6h-6.3V41z M405.4,25.6H400L394.4,41h4.2l1-3.1h5.7l0.9,3.1h4.4
		L405.4,25.6z M400.7,34.8l1.2-3.6c0.2-0.6,0.5-1.6,0.7-2.4h0.1c0.1,0.6,0.3,1.5,0.6,2.4l1.2,3.6H400.7z M387,41h5.2l-6-8.1l5.6-7.3
		h-4.9l-4.6,6.3h0v-6.3h-4.2V41h4.2v-6.7h0L387,41z M369.1,25.6h-5.3L358.2,41h4.2l1-3.1h5.7l0.9,3.1h4.4L369.1,25.6z M364.4,34.8
		l1.2-3.6c0.2-0.6,0.5-1.6,0.7-2.4h0.1c0.1,0.6,0.3,1.5,0.6,2.4l1.2,3.6H364.4z M334.9,41h4.2v-5.9h1.6l2.5,5.9h4.7l-3.4-6.8
		c1.8-0.8,2.5-2.3,2.5-4.2c0-4.4-3.9-4.4-5.1-4.4h-7V41z M339,28.7h2.2c1.4,0,1.8,0.7,1.8,1.6c0,1.7-1.3,1.7-1.9,1.7H339V28.7z
		 M319.2,41h10.9v-3.1h-6.8v-3.1h6.1v-3.1h-6.1v-2.8h6.5v-3.1h-10.7V41z M307.9,35.1h2.3v2.5c-0.5,0.4-1.6,0.5-2.2,0.5
		c-2.6,0-3.2-2.4-3.2-4.9c0-2.3,0.6-4.9,3.2-4.9c1.6,0,2.1,1,2.4,1.9l3.9-1c-0.7-2.8-3.2-4-6.2-4c-3.6,0-7.6,2.1-7.6,8
		c0,6,3.8,8,7.8,8c2.4,0,5-1.1,5.9-1.8v-7.4h-6.2V35.1z M284.1,41h4.2v-5.9h1.6l2.5,5.9h4.7l-3.4-6.8c1.8-0.8,2.5-2.3,2.5-4.2
		c0-4.4-3.9-4.4-5.1-4.4h-7V41z M288.2,28.7h2.2c1.4,0,1.8,0.7,1.8,1.6c0,1.7-1.3,1.7-1.9,1.7h-2.2V28.7z M268.4,41h10.9v-3.1h-6.8
		v-3.1h6.1v-3.1h-6.1v-2.8h6.5v-3.1h-10.7V41z M255.5,38v-3.3h2.3c1.3,0,2,0.3,2,1.7c0,1-0.7,1.7-1.8,1.7H255.5z M255.5,31.6v-3h2.2
		c1.2,0,1.7,0.3,1.7,1.5c0,1-0.6,1.5-1.7,1.5H255.5z M251.4,41h6.3c1.6,0,6,0,6-4.1c0-2.9-2-3.6-3.3-3.8V33c0.8-0.2,2.8-0.7,2.8-3.5
		c0-3.8-4.1-3.8-5.4-3.8h-6.5V41z M237.7,41h9.9v-3.2h-5.7V25.6h-4.2V41z M222,41h10.9v-3.1h-6.8v-3.1h6.1v-3.1h-6.1v-2.8h6.5v-3.1
		H222V41z M207.7,28.8h1.4c2.8,0,3.9,2,3.9,4.5c0,2.8-0.9,4.5-4,4.5h-1.3V28.8z M203.4,41h6c4.7,0,8-2.5,8-7.8c0-5-3-7.6-7.7-7.6
		h-6.3V41z M194.1,41h4.2V25.6h-4.2V41z M178.3,41h10.9v-3.1h-6.8v-3.1h6.1v-3.1h-6.1v-2.8h6.5v-3.1h-10.7V41z M159.8,41h4.2v-6.5
		h5.1V41h4.2V25.6h-4.2v5.7H164v-5.7h-4.2V41z"/>
	<path class="st0" d="M39,114.8c0.6,0.7,1,1.9,0.7,2.8c-0.4,0.5-0.7,1-1.4,1.1c-1.6-0.2-2.6-1.9-3.1-3.3c-0.2-0.9,0.6-1.1,1.2-1.4
		C37.5,113.8,38.4,114.2,39,114.8 M60.4,75.2c2.9-1.2,2.9-5.1,5.5-6.6c0.4-0.1,0.6,0.1,0.6,0.4c-1.2,2.6-1.6,5.9-4.6,7.2
		c-2.1,0.7-3.8-0.7-5.8-0.9c-1.5-0.4-3.2-0.2-4.1-1.6c-0.2-1.6,0.5-3,1.2-4.2c1.4-0.2,2.9-0.7,4.3-1c-0.7,1.6-2.9,2.5-3.3,4.1
		c1.7-1.4,3.3-3.5,5.9-3.6c-1,1.7-2.2,3-2.5,5c0.6-0.7,1.4-2,2.1-2.8l1.5-2.1l3-0.5C63.4,70.8,61.6,73,60.4,75.2 M105.6,54.4
		l-0.1,1.7c0.1,1.4,1.5,0.1,2.1,0.7c-0.1,0-0.1,0.2-0.2,0.1c-0.5,0.2-0.9,0.6-0.9,1.2c1,0.2,1.9-0.7,2.5-1.2
		C108.1,55.9,106.9,55,105.6,54.4 M102.4,46.9l-1.9-0.6C101.3,45.9,102.3,46.4,102.4,46.9 M105.8,50c-0.4-1.1-1-2.1-1.9-3.1
		c-1-1.4-3.1-1.7-4.6-0.9c-0.6,0.4-1.2,1-1.1,1.5c1-0.2,1.6,0.1,2.6,0c0.2,0.2,0.7,0.1,0.6,0.6c-0.9,0.1-2.1,0-2.7,0.5
		c0.6,0.6,1.9,0.5,2.7,0.5C103,49,104.3,49.9,105.8,50 M65.6,82.6c-1.4,1.4-3.8,2.1-5.9,1.2c-1-0.4-2.4-1.2-2.7-2.4v-1.4h0.4
		c0.6,1.9,2.5,3,4.3,3.2c1.9,0.2,3.3-1,4.2-2.4l1-2.4C67.2,80,66.5,81.6,65.6,82.6 M59.3,86c-2.2-0.4-4.5-1.6-5.5-3.7
		c-0.4-1.4-0.4-3.3,0.5-4.5c0,1.6-0.5,3.6,0.6,5.1C56.1,84.6,57.9,85.1,59.3,86 M57.9,87.4c-2.4,0.4-4.8-0.9-6.3-2.6
		c-1.4-1.7-2.2-4.1-1.5-6.4c0.1-0.4,0.4-0.9,0.7-1.1c-0.9,2.2-0.4,5,0.9,6.8C53.3,86.2,55.7,87,57.9,87.4 M71.4,65.4
		c0-0.4-0.1-0.9-0.5-1c-2.2,1.7-3.3,4.2-4.6,6.8c-1.1,2.8-0.9,6.6-3.2,8.8c-0.6,0.1-1.6,0.4-2.2-0.1c-1-0.5-0.5-1.9-0.6-2.8
		c-2.7-0.2-4.8-1.9-7.7-1.6c-1.7,0.2-3.3,1.2-3.8,2.8c-0.7,2.9,0.1,5.9,2.1,7.9c1.7,1.6,4.1,2.7,6.6,2.2c2.7-1.1,5.5-2.2,8.2-3.5
		c1.9-1.4,3.2-3.1,3.1-5.7c-0.5-4.1-1.4-8.7,1.1-12.1C70.3,66.5,71.3,66.3,71.4,65.4 M113.2,63.8c-1.1-1.7-3.2-2.7-5.1-2
		C110.1,61.7,111.7,63.3,113.2,63.8 M111.6,60.3c0.5,0.6,1.1,1.6,2,2C113.1,61.4,112.7,60.4,111.6,60.3 M106.7,68.4
		c0.5,0.7,0.5,1.9,0.5,2.6c0.2-0.1,0.4-0.5,0.4-0.7C107.6,69.5,107.4,68.6,106.7,68.4 M97.9,67.1c-1.2,0.4-2.9,0.4-3.7,0.9l0.2,0.1
		c2.5-0.5,5.1-0.5,7.2,0.4C100.9,67.3,99.4,67.1,97.9,67.1 M93.7,66.8c2-0.1,4.1-1.1,6.4-0.6l0.1-0.2C98.1,64.8,95.6,66,93.7,66.8
		 M87.5,70.8c-3,0.9-3.1,4.3-5.9,5c-1,0.1-2-0.5-2.5-1.1c0.2,0.7,1.2,1.6,2.4,1.6c3.2-0.7,4-5.9,8.2-5.2c3-0.4,4,4.3,7.2,2.4
		c-0.7,0-1.9,0.2-2.6-0.1C92.5,71.8,90.3,69.7,87.5,70.8 M76.4,73.3c-0.1,2.2,1.4,4.3,3.3,5.3c3.6,1.2,5.3-2.5,7.6-4.2
		c3.5-2.4,6.3,2.1,9.7,0.2c0-0.5-0.6,0-1-0.1c-3,1-4.3-2.2-7.2-1.6c-3.1,1.4-4.8,6.4-9,5.2C77.9,77.3,76.6,75.2,76.4,73.3 M75,74.8
		c0,0,0.6,3,2.4,4.4c1.8,1.5,3.7,2,5.6,1c1.9-0.9,3.2-2.2,4-3c0.8-0.7,1.9-2,3.7-1.6c1.8,0.4,3.6,0.7,4,0.6s0.8-0.4,0.8-0.4
		s-1.2,0.3-3.1-0.1c-1.8-0.5-3.5-0.9-5.3,0.9c-1.8,1.9-3.9,3.7-6.1,3.7c-2.7,0-4.5-2.8-4.8-3.1C76.1,77,75,74.8,75,74.8 M79,65.8
		c0.1,0.5,0.7,1.4,1.4,1.2c-1-1.6-1.7-3.6-1.4-5.7l-0.1-0.1C78.4,62.5,78.5,64.5,79,65.8 M77,50.9c2.5-0.7,5,0.4,6.4,2.2
		c3.3,3.3,4.7,8.7,10,10c4,0,8.9,0.4,11-3.3c0.7-1.9,0.2-4.1-0.7-5.6c-1.7-1.7-4-2.7-6.2-3.8c-0.8-0.5-1.5-0.9-1.7-1.1
		c-1.5-0.6-0.8-1.8,0.6-3.3c2.3-2.4,3.5-2.8,3.5-2.8s-1.1,0.1-1.8,0.5c-0.7,0.5-1.1,0.6-3.2,3.1c-1.8,2.1,0.1,2.9,1.7,3.7
		c2.2,1.3,4.5,2.5,6.4,4.2c1,1.4,1.2,3.5,0.4,5c-1.7,3.1-5.9,3-9.3,2.8c-6.8-1.2-7.2-9-12.8-11.9c-2.2-0.9-5.2-0.6-7.2,0.6
		c-5.7,2.7-3.7,11-9.4,13.9l-9,0.7c-0.4,0.1-0.7,0.5-0.7,0.9l7.4-0.6c1.9-0.1,3.5-0.5,4.8-1.6C71.3,60.3,70.3,52.3,77,50.9
		 M71.4,70.5l-0.6,0.7c-1,1.9-0.4,4.3,0.6,6.1c0.2-1.1-0.7-2-0.9-3C70.4,72.8,70.9,71.5,71.4,70.5 M103.9,80.8
		c-1.4-0.9-3.7-0.7-5.1,0.1c1.4,0,3.2-0.5,4.7-0.1c0.4,0.5,0.4,1.2,0.2,1.7c-0.2,0.6-0.9,1.2-1.4,1.2c-0.2-0.6,0.1-1.1-0.2-1.7
		c-0.9,0-1.9-0.1-2.6,0.1c0.5,1.2,2.2,1.2,2.9,2.5c-0.5,0.2-1-0.4-1.6,0l0.1,0.1c0.6,0.4,1.4,0.4,1.9,0c0.9-0.9,1.2-2.2,1.4-3.5
		L103.9,80.8z M98.4,94.5c0.7,1.6,3,0.7,4.3,1.1c-0.7-1.1-2.1,0.1-3.2-0.6c-0.6-0.4-0.7-1.2-0.7-1.9C98.3,93.3,98.4,94,98.4,94.5
		 M37.5,107.4l1.4-2C38.1,105.8,37.4,106.6,37.5,107.4 M85.8,114.3c3.2,1.6,6.2,3.6,8.9,6.1c-0.1-0.5-0.1-1-0.4-1.4l-5.7-3.3
		c-1.1-0.2-1.7-1.6-3-1.6L85.8,114.3z M45.2,121.9c-0.5-0.5-0.9-0.9-1.6-1.1l1.5,1.1c1.6,0.7,2,2.2,3.7,2.7
		C47.8,123.4,46.5,122.5,45.2,121.9 M102.8,126.1c1.9-0.2,3.3-1.6,4.1-3.2c-0.1-0.5-0.5-1.2-1-1.2c0.2,0.4,0.4,0.9,0.4,1.4
		C105.1,124.1,103.8,125,102.8,126.1 M109.6,72.1c0.5-0.4,0.7-1.1,0.6-2l-0.5-1.9c-0.4-0.5-0.7-1.5-1.5-1.2
		C109.8,68.1,109.7,70.1,109.6,72.1 M112.2,72.1c0.2-1.1,0.4-2.5-0.4-3.2c0.5,1.6,0,3.1-0.9,4.5C111.7,73.2,111.9,72.6,112.2,72.1
		 M112.8,75.1c1.7-1.2,1.7-3.6,1.4-5.6c-1.1-1.2-0.1,0.9-0.4,1.4c0.2,1.7-0.9,3.1-1.7,4.3C112.3,75.3,112.6,75.2,112.8,75.1
		 M115.2,69c0.7,2.2,0.2,5-1.2,6.7c-1.6,2-3.7,0-5.6-0.5c-0.2-0.1-0.6-0.5-1-0.2c2.7,2.2-0.7,4.7-1.1,7.1c-1,3.7-0.6,8.1-0.7,12
		c-0.2,1.1-1.2,1.7-2.1,2.4l-2-0.1c-1.5,0.7-1.5,3.6-3.7,2.9c-0.2-0.4-0.6-0.2-1-0.5c-0.1,0.9,0.7,1.1,1.2,1.7
		c-0.6,1.1-1.7,1.7-2.9,2.1c-0.7,2.1-1.9,4.6-4.2,4.8c-4.3-0.2-7.7-3.2-11-5.5c-2.8-2.6-3.7-6.6-4.7-10.2c-0.4-0.6-0.5-1.4-0.9-2
		c-0.5,0.6-0.1,1.7,0,2.6c0.5,3.7,2.5,6.6,4.1,9.8v7.2c6.2,2.7,12.6,4.6,19.1,6.8c4.6,2.4,9.9,4,13.5,7.8
		c-4.7,3.7-10.4,6.4-16.1,8.3c-0.6,0-1.1,0.2-1.6,0.1c2.9-3.7,6.9-6.2,10.2-9.7c0.6-0.6,1.1-1.4,0.9-2.4c-0.2-0.5-0.7-0.5-1.1-0.6
		c0.1,0.7,0.2,1.7-0.1,2.4c-4.8,4.5-10.4,7.9-15.1,12.1c-0.9,0.5-1.9,0.6-2.9,0.6c1.2-2.1,3.8-2.6,5.5-4.3c3.1-2.5,6.3-4.8,9.8-7.3
		c1-1,1.6-2.2,1.7-3.6c-0.6-0.6-1.2-1.2-2.1-1.2c0.2,1,0.6,2.5,0,3.5c-3.1,3.6-7.7,5.5-11.3,8.3c-3.1,1.7-5.6,4.5-9,5.2
		c-12.5,0.2-24.2-3.1-33.9-9.7c-2.1-1.5-4.5-3.1-6.1-5.1c-0.5-0.4-0.2-1,0-1.4l0.5-0.4c1.1,0.7,2.4,1.4,3.5,2
		c-0.7-0.6-1.9-1.5-2.4-2.6c3.3,0.5,5.9,3,8.9,4.7c2.5,1.6,4.7,4.2,7.7,5.1c0.1-0.7-0.6-1.1-1-1.7c-4.7-4-10.2-6.4-15.5-9.2
		c-0.5-0.7-0.6-1.4-0.5-2.4c5.6,3.5,11.9,5.7,17.6,9.4c4.5,3,8.7,6.3,13.8,8.7c1.4,0.7,3.2,0.4,4.6,0c6.9-3,13.9-5.8,20.3-9.8
		c1.1-0.9,1.9-2.2,1.7-3.6c-0.2-1-0.6-1.9-1.7-2.2c-0.2,0-0.4-0.4-0.6-0.1c0.5,1.2,1.7,2.4,1.1,3.8c-2,3.5-6.4,4.3-9.8,6.1
		c-4.7,1.9-9.3,3.8-14.1,5.3c-3.1,0.5-5.2-2.4-7.2-4c8.7,1.4,17-0.5,23.9-4.2c0.7-0.6,1.6-1.4,1.6-2.4c-1.1-2.2-3.1-3.3-5-4.8
		c-1.9-1.2-3.3-3.1-5.6-4c-0.4-0.6-1.1-1.4-1.9-1.2c3.6,3.5,7.8,6.4,10.9,10.3c0.5,1.1-0.6,1.6-1.4,2.1c-6.4,3.7-14.9,4.5-22.5,3.2
		c-3.7-1-6.3-3.6-9.5-5.5c-4.3-3-9.7-5.2-14.4-7.9c0.5-2.7,0.6-6.2,2-8.8c-0.7,0-1.1,1-1.6,1.6c-0.9,2-0.6,4.6-0.9,6.6
		c-0.4,0.4-0.9-0.2-1.2-0.5c-0.5-1.2-1.6-2.6-1.1-4.1c0.7-1.1,0.4-3,1.7-3.7l-0.2-0.2c-2.5,1.9-2.5,5.3-2,8.1
		c-1.7,0.9-4.5,0.6-6.7,0.7c-1.1-1.2-1.9-2.9-3-4.3c2.7-1.5,5.8-3.1,8.8-4.3c2.4-1.1,5.2-1.5,8.1-2c3.2-2,5.3-5.7,7.3-8.9l2.2-4.5
		l9.2-3.8c2.7-1.4,3.6-4,4.6-6.6c0.6,1.4,0.4,3.8,2.2,4.5c2.1,1.1,4-0.6,5.8-1.4c3,0.9,6.6,0.7,8.9-1.2l3.3-3.1
		c2.2,0.2,4.6,0.9,6.7,0c2.5-1.5,3.6-4.1,5.9-5.7c1.1,0.4,2.1,0.9,3,1.5c0-0.5,0-0.9-0.1-1.2c-2.8,0.2-3.5-3.6-6.4-3
		c-1.5,0.4-2.9,1.7-4.3,0.9c-1.5-1.4-3.6-2.5-5.6-2.1c3.2-0.2,4.6,3,7.8,3c1.2-0.2,2.9-1.1,4,0l0.7,1c-1.7,1.4-3,3.1-4.3,4.8
		c-2.8,2.7-7.4-1.7-9.8,2.1c-1.6,2.2-4.3,3.3-7.2,2.9c-1.7-0.4-3.5-1.1-4.8-2.1C75.4,80,76,80.5,76,80.8c-0.1,0.9-0.4,1.7-1,2.6
		c-0.9,0.4-2,0.5-2.9,0.1c-2-1.2-0.9-3.8-2-5.6c-1.1-2.5-2.2-5.7-1-8.3c0.4-1,1.2-1.6,2-2.5l2-0.1v-0.4c-1-1-1.7-2.4-1.7-4
		c0.1-0.9,0.6-1.7,0.2-2.6c-0.9,1.1-1,2.7-1.7,4c-0.7,1.9-2.2,3.6-4.3,3.8c-4.2,0.5-8.8-0.2-12.6,1.1c0.4-1.1,1.1-2.4,1.1-3.7
		c-2.6-4.5-7.8-8.2-7.7-14C46.2,39.5,53,29.7,62.8,24.9c10.4-5,25.3-3.6,33.8,3.7c3.1,2.5,3.2,6.6,5.5,9.7
		c3.8,6.2,7.6,12.5,10.4,19.3c-1,0.2-2,0-2.8-0.6c-0.9-3.1-2.8-6.1-4.2-8.8c-0.6-1.7-1.6-3.3-3.2-4.1c-2.2-0.9-3.6,2.4-5,3.3
		c-0.2,0.5-0.5,0.9-0.4,1.5c0.7,0.1,1.1,0.7,1.9,1.1c2.9,0,6.6-0.5,7.9,2.2v0.1c-0.4,0-0.9-0.6-1.1-0.1c0.7,0.5,1.5,1,1.9,1.9
		c-1.4-0.2-2.4-1.4-3.6-1.7c-1.4-0.4-2.5-1.2-3.6-2.1c-0.1,0.1-0.4-0.1-0.5,0.1c1.6,1.5,3.8,2,5,4c0.6,1.9,1.1,4.3,0,6.2
		c-3,4.2-9.2,4.1-13.5,3c-4.7-2.2-5.8-7.9-10-11c-2.1-0.7-4.2,0-5.9,1.1c-1.6,1.2-2.6,3.1-3.1,5c1.6-2.5,3.8-6.2,7.8-5.3
		c0.4,0,0.9,0.1,0.6,0.6c-2.8,1.5-6.2,3.3-6.6,7.1c-0.2,1.2-0.4,2.5,0.1,3.6c0.1-2.7,1-5.6,3.2-7.4c1.5-0.9,3.3-2.2,5.2-1.6
		c0.4,0.4-0.2,0.7-0.5,1c-2.7,1.1-5.3,3-5.2,6.3v0.5c0.4-0.4,0.4-1.4,0.6-2c0.7-2.7,3.6-4.1,6.2-4.7c0.5,0.1,1,0.4,1.2,0.9
		c-1.2,1.2-3.2,1.6-4.2,3.5c-0.6,1.1-0.5,2.7,0,3.8c0.5,0.6,1,1.1,1.7,1.4c0-1.4-0.9-3.1,0.1-4.5c0.6-1,1.6-2,3-1.7
		c1,1.1-0.6,2-0.6,3.2c-0.1,0.6-0.1,1.5,0.4,2c0.2,0.1,0.6,0.4,0.9,0.4c0.1-1.1,0.2-2.4,1.4-2.8h0.2v1.6c0.6,0,1.2-0.6,1.7-0.6
		c-0.5,2-2.7,2.6-3.5,4.5c-2.1,0.5-4.8,1.2-6.8,0.1c-1.2-1.1-3.3-1.1-5-0.7c-0.1,0.9,1.9,1.2,0.7,2.4l-0.5,0.5
		c-0.2-0.1-0.5-0.6-0.7-0.9l-1.1,0.1v0.1l1.1,0.1c-1,1.4-2.1,2.7-1.9,4.5c0.1,1.7,1.5,3.1,2.5,4.2c-0.5-1.2-1.2-3.1-0.7-5
		c0.4-1.7,1.5-3.2,3.2-3.8c1-0.4,2.1-0.1,3.1,0.1c-0.2,1.2-0.4,2.7,0.7,3.5c2.9-0.2,3.1-3.7,5.7-4.3c1-0.2,1.9-0.6,3-0.6
		C89,68,87.8,67.9,87,67.9c1.2-1.1,2.4-2.4,4-2.7l7.4-0.4c2.4,0.2,3.8,2,5,3.8c0.4,0.4,0.9,0.1,1.2,0c0.6-0.4-0.2-0.7,0.1-1.4
		l1.2,0.2c-0.5-0.6-1.4-0.9-2-1.5l1.9-1.6c-1.4,0.2-3.1,0.7-4.3-0.1c1.2-0.9,3.2-1.5,4.1-3.1c0.6-1,1.6-2.5,2.9-2.7
		c2.1-0.5,3.8,0.5,5.2,1.6c1.6,1.5,0.7,4.1,1.1,6.2c-2.1-1.2-4.3-3.8-7.1-2.7v0.1C111.1,63.9,113.9,66,115.2,69 M128.3,44.5
		c4.1,8.9,5.9,19,5.9,29.5c-0.5,15.6-4.8,29.9-14.2,41.4c-1.7,2.2-3.8,4.3-6.1,6.2l-3-1.9c0.1-1.9,2.5-2.8,3.5-4.2
		c9.3-9.8,14.5-22.1,15.7-36.1c0.2-8.5,0-17.8-2.7-26c-5.6-16.8-18.5-31.6-35.8-36.2c-2-0.4-4.1-1.2-6.1-1.2l-0.1-0.2
		c-15-2.4-31.3,2.1-42.7,12.3c-9.9,8.3-15.1,20.4-17.8,33c-3,15.2,0.1,30.7,6.6,43.4c-0.9,0.7-2,1.5-3.3,1.6l-0.5-0.6
		c-8.8-15.9-9.9-38.8-3.5-56.1C31.3,27.6,51,12.1,74.8,11C98.8,10,119,24.1,128.3,44.5"/>
</g>
</svg>
